<svg xmlns="http://www.w3.org/2000/svg" width="23.041" height="15.361" viewBox="0 0 23.041 15.361">
    <path id="views" fill="#397670" d="M22.9 11.6a12.83 12.83 0 0 0-11.379-7.1A12.832 12.832 0 0 0 .139 11.6a1.294 1.294 0 0 0 0 1.168 12.83 12.83 0 0 0 11.381 7.1 12.832 12.832 0 0 0 11.381-7.1A1.294 1.294 0 0 0 22.9 11.6zm-11.379 6.341a5.76 5.76 0 1 1 5.76-5.76 5.76 5.76 0 0 1-5.76 5.76zm0-9.6a3.813 3.813 0 0 0-1.012.152 1.914 1.914 0 0 1-2.676 2.676 3.831 3.831 0 1 0 3.688-2.829z" transform="translate(0 -4.5)"/>
</svg>
