<svg xmlns="http://www.w3.org/2000/svg" width="35" height="35" viewBox="0 0 35 35">
    <path id="pdf_icn" fill="#326762" d="M34.5 3h-21A3.51 3.51 0 0 0 10 6.5v21a3.51 3.51 0 0 0 3.5 3.5h21a3.51 3.51 0 0 0 3.5-3.5v-21A3.51 3.51 0 0 0 34.5 3zM19.625 16.125A2.621 2.621 0 0 1 17 18.75h-1.75v3.5h-2.625v-10.5H17a2.621 2.621 0 0 1 2.625 2.625zm8.75 3.5a2.621 2.621 0 0 1-2.625 2.625h-4.375v-10.5h4.375a2.621 2.621 0 0 1 2.625 2.625zm7-5.25H32.75v1.75h2.625v2.625H32.75v3.5h-2.625v-10.5h5.25zm-20.125 1.75H17v-1.75h-1.75zM6.5 10H3v24.5A3.51 3.51 0 0 0 6.5 38H31v-3.5H6.5zM24 19.625h1.75v-5.25H24z" data-name="pdf icn" transform="translate(-3 -3)"/>
</svg>
