<svg xmlns="http://www.w3.org/2000/svg" width="20.555" height="20.555" viewBox="0 0 20.555 20.555">
    <path id="print" fill="#397670" d="M17.985 7.708V3.1a1.285 1.285 0 0 0-.376-.909L15.792.376A1.285 1.285 0 0 0 14.884 0H3.854a1.285 1.285 0 0 0-1.285 1.285v6.423A2.569 2.569 0 0 0 0 10.277v4.5a.642.642 0 0 0 .642.642h1.927v3.851a1.285 1.285 0 0 0 1.285 1.285H16.7a1.285 1.285 0 0 0 1.285-1.285v-3.854h1.927a.642.642 0 0 0 .642-.642v-4.5a2.569 2.569 0 0 0-2.569-2.566zm-2.569 10.277H5.139v-3.854h10.277zm0-8.993H5.139V2.569h7.708V4.5a.642.642 0 0 0 .642.642h1.927zm1.927 2.891a.964.964 0 1 1 .964-.964.964.964 0 0 1-.964.964z"/>
</svg>
